<svg width="26.001465" height="26.791992" viewBox="0 0 26.0015 26.792" fill="none" xmlns="http://www.w3.org/2000/svg" xmlns:xlink="http://www.w3.org/1999/xlink">
	<desc>
			Created with Pixso.
	</desc>
	<defs/>
	<path id="Forma 1" d="M18.0615 17.415C19.6733 15.6548 20.6304 13.394 20.7715 11.0117C20.9131 8.62939 20.231 6.271 18.8389 4.33203C17.4468 2.39355 15.4307 0.993164 13.1279 0.365723C10.8252 -0.261719 8.37695 -0.0776367 6.19434 0.886719C4.01123 1.85107 2.22656 3.53711 1.14014 5.66211C0.0532227 7.78662 -0.269043 10.2207 0.227051 12.5552C0.722656 14.8896 2.00684 16.9824 3.86377 18.4817C5.72021 19.9812 8.03613 20.7964 10.4224 20.79C12.6748 20.793 14.8662 20.0591 16.6626 18.7L24.4106 26.5071C24.4961 26.5959 24.5986 26.667 24.7119 26.7161C24.8252 26.7649 24.9473 26.7908 25.0708 26.792C25.1943 26.7925 25.3169 26.7673 25.4302 26.7183C25.5439 26.6692 25.646 26.5972 25.7305 26.5071C25.9043 26.3262 26.0015 26.085 26.0015 25.834C26.0015 25.583 25.9043 25.3418 25.7305 25.1609L18.0615 17.415ZM1.88867 10.29C1.90137 8.60449 2.41309 6.96094 3.3584 5.56592C4.3042 4.1709 5.6416 3.08691 7.20215 2.45117C8.76318 1.81494 10.4771 1.65527 12.1284 1.99219C13.7798 2.32861 15.2944 3.14697 16.4814 4.34326C17.6689 5.53955 18.4751 7.06055 18.7993 8.71436C19.123 10.3682 18.9502 12.0811 18.3022 13.6367C17.6543 15.1924 16.5601 16.5215 15.1577 17.4565C13.7554 18.3914 12.1079 18.8901 10.4224 18.8899C8.15088 18.8792 5.97656 17.9675 4.37695 16.355C2.77686 14.7427 1.88184 12.5615 1.88867 10.29Z" fill="#E8E8E8" fill-opacity="1.000000" fill-rule="nonzero"/>
</svg>
